<svg id="Livello_1" data-name="Livello 1" xmlns="http://www.w3.org/2000/svg" viewBox="0 0 120.62 138.16"><defs><style>.cls-1{fill:#0085ca;}</style></defs><title>logo</title><path d="M105,70.67A34.47,34.47,0,1,1,70.65,36.15,34.41,34.41,0,0,1,105,70.67ZM61.91,47.52a8.6,8.6,0,1,0,8.62,8.64A8.52,8.52,0,0,0,61.91,47.52Z" transform="translate(-1.57 -1.51)"/><path class="cls-1" d="M70.73,122.24v-15.6c12.69-.57,22.86-5.88,29.94-16.56a34.41,34.41,0,0,0,5.63-22.38A34.92,34.92,0,0,0,94.94,44.3a35.56,35.56,0,0,0-24.2-9.64V18.93c18.73.78,33.42,8.61,43.51,24.37a51,51,0,0,1-1.91,57.46C102.12,114.73,88.13,121.68,70.73,122.24Z" transform="translate(-1.57 -1.51)"/><path d="M70.39,139.67c-3.83-.4-7.71-.56-11.49-1.23C30.1,133.36,8,111.86,2.76,83.07A68.65,68.65,0,0,1,57.39,2.82c3.92-.74,8-.88,12-1.28.75-.07,1.52-.06,1.14,1.11-2.71.22-5.44.35-8.14.68a67.64,67.64,0,0,0-6.94,133c4.57,1.06,9.34,1.23,14,1.77C70.53,138.27,70.53,138.19,70.39,139.67Z" transform="translate(-1.57 -1.51)"/></svg>